<svg xmlns="http://www.w3.org/2000/svg" viewBox="0 0 512 512">
  <defs>
    <style>.cls-1{fill:#0072b8;}.cls-1,.cls-2{fill-rule:evenodd;}.cls-2{fill:#fff;}</style>
  </defs>
  <path class="cls-1" d="M0,0H512V512H0Z"/>
  <path class="cls-2" d="M383.64,243.44c4.17-.78,32.58,0,39.1,0a85.91,85.91,0,0,1,19,.92,28.94,28.94,0,0,1-2.47,56c-4.44.78-32.32,0-39.1,0a88.34,88.34,0,0,1-19-.79,29.06,29.06,0,0,1-19.66-36q.28-1,.63-1.92a27.14,27.14,0,0,1,21.37-18.18Zm95.78,33.62a46.51,46.51,0,0,0-15.77-41.6,44.08,44.08,0,0,0-19.15-9.55,146.9,146.9,0,0,0-27.5-.39H388.33a42.77,42.77,0,0,0-22.8,5.89A47.32,47.32,0,0,0,359,307.28c14.34,12.29,28.28,10.59,46.52,10.59H434.2a44.76,44.76,0,0,0,45.09-40.81Zm-270.92-39a49.44,49.44,0,0,0,7,11.77L238,283.34c4.43,6.54,10.56,16,15.12,22.24a26.37,26.37,0,0,0,46.65-2l15.12-22.24,26.06-39.25A9.58,9.58,0,0,0,339,228.76a9.46,9.46,0,0,0-7.25-1.8,16.42,16.42,0,0,0-9.52,9.16l-15,22.23c-5.08,7.33-10,14.92-15.12,22.24l-7.56,11.12A11.47,11.47,0,0,1,273.4,299a20.05,20.05,0,0,1-9.26-9.42l-6.64-11-15.12-22.24-15.11-22.24a10.94,10.94,0,0,0-11.34-7.06,9.42,9.42,0,0,0-7.43,11Zm-176,0a42.16,42.16,0,0,0,6.64,11.64L69.2,294.2c7.42,11.25,14.72,24.72,31.92,24.07s22.29-13.87,30.37-26.17l22.67-33.35,7.69-10.21a20,20,0,0,0,5.86-13.08,9.39,9.39,0,0,0-10.17-8.55,11.19,11.19,0,0,0-1.16.18,15.39,15.39,0,0,0-9.13,8.37c-5.08,7.72-9.77,14.52-15.11,22.24s-9.78,15.44-14.86,22.89c-2.6,3.8-5,7.33-7.56,11.12a12,12,0,0,1-10.94,7.72A18.43,18.43,0,0,1,89.26,290c-13-17.79-26.06-37.41-37.66-55.72a11.18,11.18,0,0,0-11.33-7.2,9.41,9.41,0,0,0-7.69,10.73Zm153.9-10.86c-9.25,2-7.82,9.81-7.82,19.62v55.34a21.24,21.24,0,0,0,1.56,12.16,9.37,9.37,0,0,0,16.81-2.48c.92-2.88,0-36.37,0-40.95v-27.6a21.46,21.46,0,0,0-1.43-12.16,9.11,9.11,0,0,0-9.38-3.93Zm0-33.23a13.21,13.21,0,0,0-3.91,3l-6.78,6.81c-4.43,4.44-.78,6.14,4.69,11.77l4,3.4c4.43,4.45,6,1.18,11.86-4.71,8.08-8,7.82-6.28-4.69-18.84a4.17,4.17,0,0,0-4.82-1.7Z"/>
</svg>