<svg xmlns="http://www.w3.org/2000/svg" viewBox="0 0 512 512">
  <defs>
    <style>.cls-1,.cls-2{fill-rule:evenodd;}.cls-2{fill:#fff;}.cls-3{fill:none;stroke:#000;stroke-miterlimit:33.89;stroke-width:3.55px;}</style>
  </defs>
  <path class="cls-1" d="M0,0H512V512H0Z"/>
  <path class="cls-2" d="M38.23,227.77C45.8,226,58,223.7,65.58,222.53A645.32,645.32,0,0,0,44.63,333.7c9.31-4.08,19.79-7,29.68-9.9-4.66,55.87-3.49,80.9-.58,124C269.28,305.76,349,304,374.62,370.94c139.67-17.46,124-216.5,2.32-221.15L368.8,162l15.13-22.7C364.14,104.39,316.42,80,254.72,82.86,207,85.18,146.48,77,96.43,64.23,73.15,107.88,48.7,176.56,38.23,227.77Z"/><path class="cls-1" d="M111.56,95.66c-15.13,29.1-29.1,68.68-37.83,103.6,9.31-1.75,17.46-3.49,26.77-5.24A953.42,953.42,0,0,0,74.89,299.94q14.69-4.67,29.69-8.15c-4.66,31.43-7.57,74.5-7,105.92,179.26-124,264.81-111.16,289.25-56.45,90.21-26.19,80.9-158.3-24.44-170.52l-8.73,22.69c65.77,10.48,91.37,79.74,43.07,116.4-39.58-54.71-128.62-51.21-270.63,36.09.58-17.46,2.91-46.56,6.41-66.35-11.06,2.33-17.46,3.49-27.36,6.4a662,662,0,0,1,25.61-100.1c-7.57,1.16-17.46,2.32-26.77,4.07,6.4-22.7,15.71-48.31,23.28-64,33.75,8.15,64.6,11.06,109.41,9.89,55.29-1.16,80.9,9.9,93.12,20.37,15.71,12.81,2.91,26.78-18.62,27.36-10.48.58-28.52-1.75-37.25-11.64-25,36.66,48.88,57.61,94.86-9.9-19.78-36.08-61.1-53.54-114.07-52.38-63.44,1.17-91.37-4.06-143.17-14Z"/><path class="cls-3" d="M111.56,95.66c-15.13,29.1-29.1,68.68-37.83,103.6,9.31-1.75,17.46-3.49,26.77-5.24A953.42,953.42,0,0,0,74.89,299.94q14.69-4.67,29.69-8.15c-4.66,31.43-7.57,74.5-7,105.92,179.26-124,264.81-111.16,289.25-56.45,90.21-26.19,80.9-158.3-24.44-170.52l-8.73,22.69c65.77,10.48,91.37,79.74,43.07,116.4-39.58-54.71-128.62-51.21-270.63,36.09.58-17.46,2.91-46.56,6.41-66.35-11.06,2.33-17.46,3.49-27.36,6.4a662,662,0,0,1,25.61-100.1c-7.57,1.16-17.46,2.32-26.77,4.07,6.4-22.7,15.71-48.31,23.28-64,33.75,8.15,64.6,11.06,109.41,9.89,55.29-1.16,80.9,9.9,93.12,20.37,15.71,12.81,2.91,26.78-18.62,27.36-10.48.58-28.52-1.75-37.25-11.64-25,36.66,48.88,57.61,94.86-9.9-19.78-36.08-61.1-53.54-114.07-52.38-63.44,1.17-91.37-4.06-143.17-14"/><path class="cls-2" d="M362.4,170.74l-8.73,22.69c65.76,10.48,91.36,79.74,43.07,116.4-39.58-54.71-128.62-51.21-270.63,36.09.58-17.46,2.91-46.56,6.4-66.35-11.06,2.33-17.46,3.49-27.35,6.4a662,662,0,0,1,25.61-100.1c-7.57,1.16-17.46,2.91-26.78,4.07,6.4-22.7,15.72-48.31,23.28-64,35.51,8.15,64.61,11.06,109.42,9.89,55.29-1.16,80.89,9.9,93.12,20.37,15.71,12.81,2.91,26.78-18.63,27.36-10.47.58-28.51-1.75-37.25-11.64-23.27,33.75,37.25,54.12,83.23,5.24l5.24-6.4Z"/>
</svg>