<svg xmlns="http://www.w3.org/2000/svg" viewBox="0 0 512 512"><defs><style>.cls-1{fill:#c83140;fill-rule:evenodd;}.cls-2{fill:#fff;}</style></defs><g id="Layer_2" data-name="Layer 2"><g id="Layer_1-2" data-name="Layer 1"><path class="cls-1" d="M0,0H512V512H0Z"/><path class="cls-2" d="M105.87,336.6a9.65,9.65,0,0,1,2.62-6.66,8.61,8.61,0,0,1,12.61-.05l0,0h0a9.75,9.75,0,0,1,0,13.29l0,0a8.61,8.61,0,0,1-12.61,0l0,0A9.62,9.62,0,0,1,105.87,336.6Zm4.35-4.85a7.06,7.06,0,0,0-1.91,4.85,7,7,0,0,0,1.9,4.81,6.27,6.27,0,0,0,9.19.14,7.1,7.1,0,0,0,.13-9.67l-.12-.13A6.29,6.29,0,0,0,110.22,331.75Zm3,4.2v-1.67h1.23c1,0,2,.09,2,.84s-1,.83-2,.83Zm0,1.73h1.67c1.11,0,1.16.41,1.25,1.41a13.81,13.81,0,0,0,.23,1.57h2a9.41,9.41,0,0,1-.36-1.83c-.14-1.29-.39-1.88-1.25-1.88,1.11-.2,1.46-1,1.46-2.28,0-1.74-1.9-2.14-3.25-2.14h-3.66v8.13h1.89v-3ZM149,322.74h24.84v-11.3H149V299.22h30.3V287.9H135.78v58.32H149Zm35.08,23.59,3.17-11.49H206.9l3.22,11.49h15.15l-19.11-58.78H189.8l-19.1,58.78Zm6.58-22.88L197.25,299h.19l6.18,24.42Zm82-14.29c.64-16.59-11.72-22.47-24.44-22.47-16.33.16-25.66,10.74-25.66,30.29s9,30.45,25.33,30.45c12.71,0,23.85-6.64,23.64-21.33h-14c-.29,5.57.2,9.46-9.34,9.46-8.2,0-11.7-9.45-11.7-17.93,0-8.73,3.35-18.29,11.7-18.29,9.86,0,10.12,4.58,10.49,9.82Zm48.9,37.06v-11.3H291.05V322.56H317V311.25H291.05v-12h30.57V287.9h-43.8v58.32ZM58.38,283.77H70.6l-.2-32.5,20.79,32.5h15V228.9H93.93l0,33.5L73.66,228.9H58.38v54.87Zm229.38-.25V261.91h18.67v21.61H321.6V228.9H306.43v20.86h-18.6V228.9H272.58v54.62Zm-48.83.25h14.22v-44h16V228.9h-46v10.89h15.71v44ZM191,223.71H206.2V178.56h17.13V166.75H174.27v11.81H191Zm130.48,0V213.45H291V201.36h25.93V190.3H291V178.55h30.53v-11.8H277.75v57Zm-80,0V202h17.69v21.76h14.39v-57H259.16v22.52H241.54V166.75H227.08v57Zm-55.9,39.72h11.49c7.7,0,8,2.86,8.61,9.77A81.76,81.76,0,0,0,207.34,284h13.83a59.77,59.77,0,0,1-2.48-12.54c-1-8.89-2.72-12.94-8.62-12.94v-.33c7.62-.95,10.05-6.81,10.05-15.39,0-12.14-8-14.77-22.42-14.77H172.49v56h13.08V263.43Zm0-12.37V239.55H194c6.93,0,13.64.63,13.64,5.74s-6.71,5.77-13.64,5.77ZM139.1,284.11c18.19,0,28.46-10.44,28.46-28.45s-10.27-28.44-28.46-28.44-28.46,10.44-28.46,28.44S120.92,284.11,139.1,284.11Zm13.83-28.24c0,7.59-2.36,16.53-13.83,16.53s-13.83-8.94-13.83-16.53c0-8,2.36-17,13.83-17S152.93,247.86,152.93,255.87Zm173.24,31.68v58.78h27.7V302.39s.86-6.6-3.64-11.35c-2.36-2.48-9-3.49-9-3.49Zm-.05-58.65v54.19h8s12.07-2.26,19,5.41c5.78,6.44,4.6,15.35,4.6,15.35v42.61l44.27-.13V289.86s-.49-24.32-22.37-45.31c-20.4-19.6-43.86-15.64-43.86-15.64h-9.65Zm0-5.19V166.94s68.82-6.77,108.7,50.8c27.46,39.67,26.37,76.19,26.37,76.19v52.4h-55V290.54s1-20.89-18.92-44.59A62.21,62.21,0,0,0,339,223.82l-12.86-.11Z"/></g></g></svg>